G04 #@! TF.FileFunction,Soldermask,Top*
%FSLAX46Y46*%
G04 Gerber Fmt 4.6, Leading zero omitted, Abs format (unit mm)*
G04 Created by KiCad (PCBNEW 4.0.2+e4-6225~38~ubuntu15.10.1-stable) date Sat 25 Jun 2016 03:23:57 PM EDT*
%MOMM*%
G01*
G04 APERTURE LIST*
%ADD10C,0.100000*%
%ADD11R,2.432000X2.432000*%
%ADD12O,2.432000X2.432000*%
%ADD13R,2.127200X2.432000*%
%ADD14O,2.127200X2.432000*%
%ADD15R,2.000000X1.400000*%
%ADD16R,1.650000X1.900000*%
%ADD17C,4.464000*%
G04 APERTURE END LIST*
D10*
D11*
X14605000Y80010000D03*
D12*
X17145000Y80010000D03*
D13*
X1905000Y80010000D03*
D14*
X4445000Y80010000D03*
X6985000Y80010000D03*
D13*
X1905000Y11430000D03*
D14*
X4445000Y11430000D03*
X6985000Y11430000D03*
D15*
X8215000Y84125000D03*
X8215000Y85725000D03*
X8215000Y87325000D03*
X3215000Y84125000D03*
X3215000Y85725000D03*
X3215000Y87325000D03*
X19645000Y84125000D03*
X19645000Y85725000D03*
X19645000Y87325000D03*
X14645000Y84125000D03*
X14645000Y85725000D03*
X14645000Y87325000D03*
X31075000Y84125000D03*
X31075000Y85725000D03*
X31075000Y87325000D03*
X26075000Y84125000D03*
X26075000Y85725000D03*
X26075000Y87325000D03*
X42505000Y84125000D03*
X42505000Y85725000D03*
X42505000Y87325000D03*
X37505000Y84125000D03*
X37505000Y85725000D03*
X37505000Y87325000D03*
X53935000Y84125000D03*
X53935000Y85725000D03*
X53935000Y87325000D03*
X48935000Y84125000D03*
X48935000Y85725000D03*
X48935000Y87325000D03*
X65365000Y84125000D03*
X65365000Y85725000D03*
X65365000Y87325000D03*
X60365000Y84125000D03*
X60365000Y85725000D03*
X60365000Y87325000D03*
X76795000Y84125000D03*
X76795000Y85725000D03*
X76795000Y87325000D03*
X71795000Y84125000D03*
X71795000Y85725000D03*
X71795000Y87325000D03*
X88225000Y84125000D03*
X88225000Y85725000D03*
X88225000Y87325000D03*
X83225000Y84125000D03*
X83225000Y85725000D03*
X83225000Y87325000D03*
X83225000Y75895000D03*
X83225000Y74295000D03*
X83225000Y72695000D03*
X88225000Y75895000D03*
X88225000Y74295000D03*
X88225000Y72695000D03*
X71795000Y75895000D03*
X71795000Y74295000D03*
X71795000Y72695000D03*
X76795000Y75895000D03*
X76795000Y74295000D03*
X76795000Y72695000D03*
X60365000Y75895000D03*
X60365000Y74295000D03*
X60365000Y72695000D03*
X65365000Y75895000D03*
X65365000Y74295000D03*
X65365000Y72695000D03*
X48935000Y75895000D03*
X48935000Y74295000D03*
X48935000Y72695000D03*
X53935000Y75895000D03*
X53935000Y74295000D03*
X53935000Y72695000D03*
X37505000Y75895000D03*
X37505000Y74295000D03*
X37505000Y72695000D03*
X42505000Y75895000D03*
X42505000Y74295000D03*
X42505000Y72695000D03*
X26075000Y75895000D03*
X26075000Y74295000D03*
X26075000Y72695000D03*
X31075000Y75895000D03*
X31075000Y74295000D03*
X31075000Y72695000D03*
X14645000Y75895000D03*
X14645000Y74295000D03*
X14645000Y72695000D03*
X19645000Y75895000D03*
X19645000Y74295000D03*
X19645000Y72695000D03*
X3215000Y75895000D03*
X3215000Y74295000D03*
X3215000Y72695000D03*
X8215000Y75895000D03*
X8215000Y74295000D03*
X8215000Y72695000D03*
X8215000Y61265000D03*
X8215000Y62865000D03*
X8215000Y64465000D03*
X3215000Y61265000D03*
X3215000Y62865000D03*
X3215000Y64465000D03*
X19645000Y61265000D03*
X19645000Y62865000D03*
X19645000Y64465000D03*
X14645000Y61265000D03*
X14645000Y62865000D03*
X14645000Y64465000D03*
X31075000Y61265000D03*
X31075000Y62865000D03*
X31075000Y64465000D03*
X26075000Y61265000D03*
X26075000Y62865000D03*
X26075000Y64465000D03*
X42505000Y61265000D03*
X42505000Y62865000D03*
X42505000Y64465000D03*
X37505000Y61265000D03*
X37505000Y62865000D03*
X37505000Y64465000D03*
X53935000Y61265000D03*
X53935000Y62865000D03*
X53935000Y64465000D03*
X48935000Y61265000D03*
X48935000Y62865000D03*
X48935000Y64465000D03*
X65365000Y61265000D03*
X65365000Y62865000D03*
X65365000Y64465000D03*
X60365000Y61265000D03*
X60365000Y62865000D03*
X60365000Y64465000D03*
X76795000Y61265000D03*
X76795000Y62865000D03*
X76795000Y64465000D03*
X71795000Y61265000D03*
X71795000Y62865000D03*
X71795000Y64465000D03*
X88225000Y61265000D03*
X88225000Y62865000D03*
X88225000Y64465000D03*
X83225000Y61265000D03*
X83225000Y62865000D03*
X83225000Y64465000D03*
X83225000Y53035000D03*
X83225000Y51435000D03*
X83225000Y49835000D03*
X88225000Y53035000D03*
X88225000Y51435000D03*
X88225000Y49835000D03*
X71795000Y53035000D03*
X71795000Y51435000D03*
X71795000Y49835000D03*
X76795000Y53035000D03*
X76795000Y51435000D03*
X76795000Y49835000D03*
X60365000Y53035000D03*
X60365000Y51435000D03*
X60365000Y49835000D03*
X65365000Y53035000D03*
X65365000Y51435000D03*
X65365000Y49835000D03*
X48935000Y53035000D03*
X48935000Y51435000D03*
X48935000Y49835000D03*
X53935000Y53035000D03*
X53935000Y51435000D03*
X53935000Y49835000D03*
X37505000Y53035000D03*
X37505000Y51435000D03*
X37505000Y49835000D03*
X42505000Y53035000D03*
X42505000Y51435000D03*
X42505000Y49835000D03*
X26075000Y53035000D03*
X26075000Y51435000D03*
X26075000Y49835000D03*
X31075000Y53035000D03*
X31075000Y51435000D03*
X31075000Y49835000D03*
X14645000Y53035000D03*
X14645000Y51435000D03*
X14645000Y49835000D03*
X19645000Y53035000D03*
X19645000Y51435000D03*
X19645000Y49835000D03*
X3215000Y53035000D03*
X3215000Y51435000D03*
X3215000Y49835000D03*
X8215000Y53035000D03*
X8215000Y51435000D03*
X8215000Y49835000D03*
X8215000Y38405000D03*
X8215000Y40005000D03*
X8215000Y41605000D03*
X3215000Y38405000D03*
X3215000Y40005000D03*
X3215000Y41605000D03*
X19645000Y38405000D03*
X19645000Y40005000D03*
X19645000Y41605000D03*
X14645000Y38405000D03*
X14645000Y40005000D03*
X14645000Y41605000D03*
X31075000Y38405000D03*
X31075000Y40005000D03*
X31075000Y41605000D03*
X26075000Y38405000D03*
X26075000Y40005000D03*
X26075000Y41605000D03*
X42505000Y38405000D03*
X42505000Y40005000D03*
X42505000Y41605000D03*
X37505000Y38405000D03*
X37505000Y40005000D03*
X37505000Y41605000D03*
X53935000Y38405000D03*
X53935000Y40005000D03*
X53935000Y41605000D03*
X48935000Y38405000D03*
X48935000Y40005000D03*
X48935000Y41605000D03*
X65365000Y38405000D03*
X65365000Y40005000D03*
X65365000Y41605000D03*
X60365000Y38405000D03*
X60365000Y40005000D03*
X60365000Y41605000D03*
X76795000Y38405000D03*
X76795000Y40005000D03*
X76795000Y41605000D03*
X71795000Y38405000D03*
X71795000Y40005000D03*
X71795000Y41605000D03*
X88225000Y38405000D03*
X88225000Y40005000D03*
X88225000Y41605000D03*
X83225000Y38405000D03*
X83225000Y40005000D03*
X83225000Y41605000D03*
X83225000Y30175000D03*
X83225000Y28575000D03*
X83225000Y26975000D03*
X88225000Y30175000D03*
X88225000Y28575000D03*
X88225000Y26975000D03*
X71795000Y30175000D03*
X71795000Y28575000D03*
X71795000Y26975000D03*
X76795000Y30175000D03*
X76795000Y28575000D03*
X76795000Y26975000D03*
X60365000Y30175000D03*
X60365000Y28575000D03*
X60365000Y26975000D03*
X65365000Y30175000D03*
X65365000Y28575000D03*
X65365000Y26975000D03*
X48935000Y30175000D03*
X48935000Y28575000D03*
X48935000Y26975000D03*
X53935000Y30175000D03*
X53935000Y28575000D03*
X53935000Y26975000D03*
X37505000Y30175000D03*
X37505000Y28575000D03*
X37505000Y26975000D03*
X42505000Y30175000D03*
X42505000Y28575000D03*
X42505000Y26975000D03*
X26075000Y30175000D03*
X26075000Y28575000D03*
X26075000Y26975000D03*
X31075000Y30175000D03*
X31075000Y28575000D03*
X31075000Y26975000D03*
X14645000Y30175000D03*
X14645000Y28575000D03*
X14645000Y26975000D03*
X19645000Y30175000D03*
X19645000Y28575000D03*
X19645000Y26975000D03*
X3215000Y30175000D03*
X3215000Y28575000D03*
X3215000Y26975000D03*
X8215000Y30175000D03*
X8215000Y28575000D03*
X8215000Y26975000D03*
X8215000Y15545000D03*
X8215000Y17145000D03*
X8215000Y18745000D03*
X3215000Y15545000D03*
X3215000Y17145000D03*
X3215000Y18745000D03*
X19645000Y15545000D03*
X19645000Y17145000D03*
X19645000Y18745000D03*
X14645000Y15545000D03*
X14645000Y17145000D03*
X14645000Y18745000D03*
X31075000Y15545000D03*
X31075000Y17145000D03*
X31075000Y18745000D03*
X26075000Y15545000D03*
X26075000Y17145000D03*
X26075000Y18745000D03*
X42505000Y15545000D03*
X42505000Y17145000D03*
X42505000Y18745000D03*
X37505000Y15545000D03*
X37505000Y17145000D03*
X37505000Y18745000D03*
X53935000Y15545000D03*
X53935000Y17145000D03*
X53935000Y18745000D03*
X48935000Y15545000D03*
X48935000Y17145000D03*
X48935000Y18745000D03*
X65365000Y15545000D03*
X65365000Y17145000D03*
X65365000Y18745000D03*
X60365000Y15545000D03*
X60365000Y17145000D03*
X60365000Y18745000D03*
X76795000Y15545000D03*
X76795000Y17145000D03*
X76795000Y18745000D03*
X71795000Y15545000D03*
X71795000Y17145000D03*
X71795000Y18745000D03*
X88225000Y15545000D03*
X88225000Y17145000D03*
X88225000Y18745000D03*
X83225000Y15545000D03*
X83225000Y17145000D03*
X83225000Y18745000D03*
X83225000Y7315000D03*
X83225000Y5715000D03*
X83225000Y4115000D03*
X88225000Y7315000D03*
X88225000Y5715000D03*
X88225000Y4115000D03*
X71795000Y7315000D03*
X71795000Y5715000D03*
X71795000Y4115000D03*
X76795000Y7315000D03*
X76795000Y5715000D03*
X76795000Y4115000D03*
X60365000Y7315000D03*
X60365000Y5715000D03*
X60365000Y4115000D03*
X65365000Y7315000D03*
X65365000Y5715000D03*
X65365000Y4115000D03*
X48935000Y7315000D03*
X48935000Y5715000D03*
X48935000Y4115000D03*
X53935000Y7315000D03*
X53935000Y5715000D03*
X53935000Y4115000D03*
X37505000Y7315000D03*
X37505000Y5715000D03*
X37505000Y4115000D03*
X42505000Y7315000D03*
X42505000Y5715000D03*
X42505000Y4115000D03*
X26075000Y7315000D03*
X26075000Y5715000D03*
X26075000Y4115000D03*
X31075000Y7315000D03*
X31075000Y5715000D03*
X31075000Y4115000D03*
X14645000Y7315000D03*
X14645000Y5715000D03*
X14645000Y4115000D03*
X19645000Y7315000D03*
X19645000Y5715000D03*
X19645000Y4115000D03*
X3215000Y7315000D03*
X3215000Y5715000D03*
X3215000Y4115000D03*
X8215000Y7315000D03*
X8215000Y5715000D03*
X8215000Y4115000D03*
D11*
X14605000Y11430000D03*
D12*
X17145000Y11430000D03*
D16*
X11430000Y81300000D03*
X11430000Y83800000D03*
X22860000Y81300000D03*
X22860000Y83800000D03*
X34290000Y81300000D03*
X34290000Y83800000D03*
X45720000Y81300000D03*
X45720000Y83800000D03*
X57150000Y81300000D03*
X57150000Y83800000D03*
X68580000Y81300000D03*
X68580000Y83800000D03*
X80010000Y81300000D03*
X80010000Y83800000D03*
X80010000Y78720000D03*
X80010000Y76220000D03*
X68580000Y78720000D03*
X68580000Y76220000D03*
X57150000Y78720000D03*
X57150000Y76220000D03*
X45720000Y78720000D03*
X45720000Y76220000D03*
X34290000Y78720000D03*
X34290000Y76220000D03*
X22860000Y78720000D03*
X22860000Y76220000D03*
X11430000Y78720000D03*
X11430000Y76220000D03*
X11430000Y58440000D03*
X11430000Y60940000D03*
X22860000Y58440000D03*
X22860000Y60940000D03*
X34290000Y58440000D03*
X34290000Y60940000D03*
X45720000Y58440000D03*
X45720000Y60940000D03*
X57150000Y58440000D03*
X57150000Y60940000D03*
X68580000Y58440000D03*
X68580000Y60940000D03*
X80010000Y58440000D03*
X80010000Y60940000D03*
X80010000Y55860000D03*
X80010000Y53360000D03*
X68580000Y55860000D03*
X68580000Y53360000D03*
X57150000Y55860000D03*
X57150000Y53360000D03*
X45720000Y55860000D03*
X45720000Y53360000D03*
X34290000Y55860000D03*
X34290000Y53360000D03*
X22860000Y55860000D03*
X22860000Y53360000D03*
X11430000Y55860000D03*
X11430000Y53360000D03*
X11430000Y35580000D03*
X11430000Y38080000D03*
X22860000Y35580000D03*
X22860000Y38080000D03*
X34290000Y35580000D03*
X34290000Y38080000D03*
X45720000Y35580000D03*
X45720000Y38080000D03*
X57150000Y35580000D03*
X57150000Y38080000D03*
X68580000Y35580000D03*
X68580000Y38080000D03*
X80010000Y35580000D03*
X80010000Y38080000D03*
X80010000Y33000000D03*
X80010000Y30500000D03*
X68580000Y33000000D03*
X68580000Y30500000D03*
X57150000Y33000000D03*
X57150000Y30500000D03*
X45720000Y33000000D03*
X45720000Y30500000D03*
X34290000Y33000000D03*
X34290000Y30500000D03*
X22860000Y33000000D03*
X22860000Y30500000D03*
X11430000Y33000000D03*
X11430000Y30500000D03*
X11430000Y12720000D03*
X11430000Y15220000D03*
X22860000Y12720000D03*
X22860000Y15220000D03*
X34290000Y12720000D03*
X34290000Y15220000D03*
X45720000Y12720000D03*
X45720000Y15220000D03*
X57150000Y12720000D03*
X57150000Y15220000D03*
X68580000Y12720000D03*
X68580000Y15220000D03*
X80010000Y12720000D03*
X80010000Y15220000D03*
X80010000Y10140000D03*
X80010000Y7640000D03*
X68580000Y10140000D03*
X68580000Y7640000D03*
X57150000Y10140000D03*
X57150000Y7640000D03*
X45720000Y10140000D03*
X45720000Y7640000D03*
X34290000Y10140000D03*
X34290000Y7640000D03*
X22860000Y10140000D03*
X22860000Y7640000D03*
X11430000Y10140000D03*
X11430000Y7640000D03*
D17*
X45720000Y68580000D03*
X80010000Y68580000D03*
X11430000Y68580000D03*
X45720000Y45720000D03*
X45720000Y22860000D03*
X80645000Y45720000D03*
X80010000Y22860000D03*
X11430000Y22860000D03*
X11430000Y45720000D03*
M02*
