M48
;DRILL file {KiCad 4.0.2+e4-6225~38~ubuntu15.10.1-stable} date Sat 25 Jun 2016 03:23:43 PM EDT
;FORMAT={-:-/ absolute / inch / decimal}
FMAT,2
INCH,TZ
T1C0.016
T2C0.040
T3C0.120
%
G90
G05
M72
T1
X0.125Y2.3
X0.125Y1.4
X0.575Y2.3
X0.575Y1.4
X1.025Y3.2
X1.025Y2.3
X1.025Y1.4
X1.025Y0.5
X1.475Y3.2
X1.475Y2.3
X1.475Y1.4
X1.475Y0.5
X1.925Y3.2
X1.925Y2.3
X1.925Y1.4
X1.925Y0.5
X2.375Y3.2
X2.375Y2.3
X2.375Y1.4
X2.375Y0.5
X2.825Y3.2
X2.825Y2.3
X2.825Y1.4
X2.825Y0.5
X3.025Y3.1
X3.025Y2.2
X3.025Y1.3
X3.025Y0.4
X3.275Y3.2
X3.275Y2.3
X3.275Y1.4
X3.275Y0.5
X3.475Y3.1
X3.475Y2.2
X3.475Y1.3
X3.475Y0.4
T2
X0.075Y3.15
X0.075Y0.45
X0.175Y3.15
X0.175Y0.45
X0.275Y3.15
X0.275Y0.45
X0.575Y3.15
X0.575Y0.45
X0.675Y3.15
X0.675Y0.45
T3
X0.45Y2.7
X0.45Y1.8
X0.45Y0.9
X1.8Y2.7
X1.8Y1.8
X1.8Y0.9
X3.15Y2.7
X3.15Y0.9
X3.175Y1.8
T0
M30
